<?xml version="1.0" encoding="UTF-8"?>
<svg width="40" height="40" version="1.1" viewBox="0 0 40 40" xmlns="http://www.w3.org/2000/svg" xmlns:cc="http://creativecommons.org/ns#" xmlns:rdf="http://www.w3.org/1999/02/22-rdf-syntax-ns#">
 <path d="m20 0a20 20 0 1 0 0 40 20 20 0 1 0 0-40z" fill="#29b6f6"/>
 <path d="m29.95 11-3.746 19.126s-0.161 0.874-1.245 0.874c-0.576 0-0.873-0.274-0.873-0.274l-8.114-6.733-3.97-2.001-5.095-1.355s-0.907-0.262-0.907-1.012c0-0.625 0.933-0.923 0.933-0.923l21.316-8.468c-1e-3 -1e-3 0.651-0.235 1.126-0.234 0.292 0 0.625 0.125 0.625 0.5 0 0.25-0.05 0.5-0.05 0.5z" fill="#fff"/>
 <path d="m19 26.505-3.426 3.374s-0.149 0.115-0.348 0.12c-0.069 2e-3 -0.143-9e-3 -0.219-0.043l0.964-5.965z" fill="#b0bec5"/>
 <path d="m25.897 14.196c-0.169-0.22-0.481-0.26-0.701-0.093l-13.196 7.897s2.106 5.892 2.427 6.912c0.322 1.021 0.58 1.045 0.58 1.045l0.964-5.965 9.832-9.096c0.22-0.167 0.261-0.48 0.094-0.7z" fill="#cfd8dc"/>
 <metadata>
  <rdf:RDF>
   <cc:Work rdf:about=""/>
  </rdf:RDF>
 </metadata>
</svg>
